<svg xmlns="http://www.w3.org/2000/svg" viewBox="0 0 900 900">
  <rect width="900" height="900" rx="90" fill="#f6f0e5"/>
  <circle cx="210" cy="186" r="112" fill="#d6e5f5"/>
  <path d="M268 250h364l-42 420c-9 78-58 122-140 122s-131-44-140-122l-42-420Z" fill="#fdfdfb" stroke="#577fac" stroke-width="18"/>
  <path d="M322 344h256l-9 92H331l-9-92Z" fill="#332419"/>
  <path d="M333 444h234l-12 105H345l-12-105Z" fill="#f0dfba"/>
  <path d="M348 556h204l-9 86c-6 52-36 76-93 76s-87-24-93-76l-9-86Z" fill="#332419"/>
  <path d="M318 327c30-63 234-63 264 0 10 23-7 51-39 61-52 17-134 17-186 0-32-10-49-38-39-61Z" fill="#2b211c"/>
  <g fill="#f5f5f0">
    <circle cx="397" cy="361" r="10"/><circle cx="492" cy="355" r="8"/><circle cx="452" cy="390" r="7"/><circle cx="530" cy="612" r="11"/><circle cx="401" cy="600" r="8"/>
  </g>
</svg>
