<svg xmlns="http://www.w3.org/2000/svg" viewBox="0 0 900 900">
  <rect width="900" height="900" rx="90" fill="#eef3f7"/>
  <circle cx="196" cy="188" r="124" fill="#edd8ab"/>
  <path d="M260 250h380l-46 420c-9 82-58 126-144 126s-135-44-144-126l-46-420Z" fill="#ffffff" stroke="#577fac" stroke-width="18"/>
  <path d="M318 332h264l-31 290c-5 52-36 82-101 82s-96-30-101-82l-31-290Z" fill="#40291f"/>
  <path d="M333 420c55-48 179-45 234 0l-17 184c-6 42-39 70-100 70s-94-28-100-70l-17-184Z" fill="#fff6df"/>
  <path d="M324 328c26-65 225-66 252-1 10 24-7 54-39 65-52 17-122 17-174 0-32-11-49-40-39-64Z" fill="#704126"/>
  <path d="M358 358c46 22 138 22 184 0" stroke="#fff6df" stroke-width="16" stroke-linecap="round"/>
  <g fill="#fff">
    <ellipse cx="410" cy="442" rx="11" ry="24" transform="rotate(25 410 442)"/>
    <ellipse cx="486" cy="470" rx="10" ry="23" transform="rotate(-30 486 470)"/>
    <ellipse cx="528" cy="545" rx="9" ry="21" transform="rotate(28 528 545)"/>
  </g>
</svg>
