<svg xmlns="http://www.w3.org/2000/svg" viewBox="0 0 720 720" role="img" aria-labelledby="title desc">
  <title id="title">Mascote Husky Club</title>
  <desc id="desc">Husky preto e bege usando camiseta azul.</desc>
  <defs>
    <radialGradient id="bg" cx="38%" cy="28%" r="72%">
      <stop offset="0" stop-color="#fff8e8"/>
      <stop offset="0.52" stop-color="#edd8ab"/>
      <stop offset="1" stop-color="#d7ecff"/>
    </radialGradient>
    <linearGradient id="furDark" x1="175" x2="543" y1="84" y2="604" gradientUnits="userSpaceOnUse">
      <stop stop-color="#273244"/>
      <stop offset="0.55" stop-color="#121720"/>
      <stop offset="1" stop-color="#2a201a"/>
    </linearGradient>
    <linearGradient id="furLight" x1="230" x2="488" y1="183" y2="552" gradientUnits="userSpaceOnUse">
      <stop stop-color="#fff4d4"/>
      <stop offset="0.62" stop-color="#edd8ab"/>
      <stop offset="1" stop-color="#d1a86f"/>
    </linearGradient>
    <linearGradient id="shirt" x1="214" x2="516" y1="459" y2="654" gradientUnits="userSpaceOnUse">
      <stop stop-color="#5f93ca"/>
      <stop offset="0.55" stop-color="#3b6da6"/>
      <stop offset="1" stop-color="#254f84"/>
    </linearGradient>
    <filter id="shadow" x="-20%" y="-20%" width="140%" height="150%">
      <feDropShadow dx="0" dy="24" stdDeviation="24" flood-color="#5f442e" flood-opacity="0.23"/>
    </filter>
    <filter id="soft" x="-20%" y="-20%" width="140%" height="140%">
      <feGaussianBlur stdDeviation="7"/>
    </filter>
  </defs>
  <rect width="720" height="720" rx="140" fill="url(#bg)"/>
  <ellipse cx="360" cy="628" rx="210" ry="44" fill="#5f442e" opacity=".16" filter="url(#soft)"/>
  <g filter="url(#shadow)">
    <path d="M218 468c-7 77 25 147 142 147s149-72 142-147c-8-81-60-128-142-128s-134 47-142 128Z" fill="url(#shirt)"/>
    <path d="M244 493c29 34 68 51 116 51s87-17 116-51c9 47 0 95-34 120-21 16-50 23-82 23s-61-7-82-23c-34-25-43-73-34-120Z" fill="#2d5f96" opacity=".56"/>
    <path d="M270 508c13 18 39 31 90 31s77-13 90-31v116H270V508Z" fill="#3b6da6"/>
    <path d="M253 129c52 9 86 42 107 90 21-48 55-81 107-90 4 61-5 111-30 151 21 29 32 66 32 111 0 88-49 146-109 146s-109-58-109-146c0-45 11-82 32-111-25-40-34-90-30-151Z" fill="url(#furDark)"/>
    <path d="M285 170c31 15 52 40 65 75-19 2-39 8-58 18-8-26-10-57-7-93Zm150 0c-31 15-52 40-65 75 19 2 39 8 58 18 8-26 10-57 7-93Z" fill="#edd8ab"/>
    <path d="M255 378c0-68 44-124 105-124s105 56 105 124-47 128-105 128-105-60-105-128Z" fill="url(#furLight)"/>
    <path d="M244 339c7-57 52-98 116-98s109 41 116 98c-39-18-74-26-116-26s-77 8-116 26Z" fill="url(#furDark)"/>
    <path d="M300 384c0 22 15 39 34 39s34-17 34-39c0-7-2-14-5-20 21 5 42 5 63 0-3 6-5 13-5 20 0 22 15 39 34 39s34-17 34-39c0-8-2-16-6-22 15 19 23 45 23 76 0 67-43 118-96 118s-96-51-96-118c0-31 8-57 23-76-4 6-6 14-6 22Z" fill="#fff7e4" opacity=".78"/>
    <circle cx="320" cy="363" r="18" fill="#10131a"/>
    <circle cx="400" cy="363" r="18" fill="#10131a"/>
    <circle cx="313" cy="356" r="6" fill="#fff"/>
    <circle cx="393" cy="356" r="6" fill="#fff"/>
    <path d="M344 408c7-12 25-12 32 0 4 7-3 17-16 17s-20-10-16-17Z" fill="#2c2018"/>
    <path d="M360 425c-3 20-18 29-39 26m39-26c3 20 18 29 39 26" fill="none" stroke="#5f442e" stroke-width="10" stroke-linecap="round"/>
    <path d="M303 455c22 22 92 22 114 0" fill="none" stroke="#5f442e" stroke-width="12" stroke-linecap="round" opacity=".22"/>
    <path d="M291 545c18 18 42 29 69 29s51-11 69-29" fill="none" stroke="#edd8ab" stroke-width="10" stroke-linecap="round" opacity=".58"/>
    <path d="M336 579c0-20 48-20 48 0 0 17-12 29-24 29s-24-12-24-29Z" fill="#edd8ab" opacity=".9"/>
    <circle cx="344" cy="576" r="4" fill="#5f442e"/>
    <circle cx="360" cy="570" r="4" fill="#5f442e"/>
    <circle cx="376" cy="576" r="4" fill="#5f442e"/>
  </g>
</svg>
