<svg xmlns="http://www.w3.org/2000/svg" viewBox="0 0 900 900">
  <rect width="900" height="900" rx="90" fill="#fff8e8"/>
  <circle cx="705" cy="206" r="126" fill="#ffd96a"/>
  <path d="M270 252h360l-43 412c-9 84-56 128-137 128s-128-44-137-128l-43-412Z" fill="#fff" stroke="#3b6da6" stroke-width="18"/>
  <path d="M327 350h246l-27 280c-6 56-39 88-96 88s-90-32-96-88l-27-280Z" fill="#f8c04f"/>
  <path d="M320 337c28-62 232-62 260 0 9 21-5 49-34 61-51 21-141 21-192 0-29-12-43-40-34-61Z" fill="#fff0ac"/>
  <path d="M356 475c60-36 128-36 188 0" stroke="#5f442e" stroke-width="14" stroke-linecap="round" opacity=".28"/>
  <path d="M376 548c44-25 104-25 148 0" stroke="#5f442e" stroke-width="14" stroke-linecap="round" opacity=".22"/>
  <circle cx="397" cy="365" r="8" fill="#5f442e"/>
  <circle cx="452" cy="388" r="7" fill="#5f442e"/>
  <circle cx="505" cy="360" r="8" fill="#5f442e"/>
</svg>
