<svg xmlns="http://www.w3.org/2000/svg" viewBox="0 0 900 900">
  <rect width="900" height="900" rx="90" fill="#f5f5f0"/>
  <circle cx="680" cy="170" r="120" fill="#edd8ab"/>
  <circle cx="210" cy="720" r="150" fill="#d9e8f7"/>
  <path d="M270 240h360l-42 430c-8 78-54 120-138 120s-130-42-138-120l-42-430Z" fill="#e6eef7" stroke="#3b6da6" stroke-width="18"/>
  <path d="M308 328h284l-30 304c-6 55-40 85-112 85s-106-30-112-85l-30-304Z" fill="#5f442e"/>
  <path d="M316 318c30-58 236-58 268 0 8 16-1 44-24 55-58 27-165 27-223 0-23-11-31-39-21-55Z" fill="#a45c35"/>
  <g fill="#edd8ab">
    <circle cx="397" cy="334" r="10"/><circle cx="482" cy="356" r="9"/><circle cx="532" cy="322" r="8"/><circle cx="355" cy="365" r="7"/>
  </g>
  <path d="M342 492h216" stroke="#edd8ab" stroke-width="16" stroke-linecap="round" opacity=".8"/>
  <path d="M365 565h170" stroke="#edd8ab" stroke-width="16" stroke-linecap="round" opacity=".55"/>
</svg>
